# Blender v2.72 (sub 0) OBJ File: 'table_empty.blend'
# www.blender.org
v 3.601189 -2.430000 3.587410
v 3.601189 -2.430000 4.487411
v 4.501190 -2.430000 3.587410
v 4.501190 -2.430000 4.487411
v 3.601189 -18.000000 3.587410
v 3.601189 -18.000000 4.487411
v 4.501190 -18.000000 3.587410
v 4.501190 -18.000000 4.487411
v 17.999998 -8.100000 8.100003
v 18.000000 -8.100000 0.000001
v 9.900001 -8.100000 0.000001
v 9.900001 -8.100000 8.100000
v 17.999998 -9.000000 8.100003
v 18.000000 -9.000000 0.000001
v 9.900001 -9.000000 0.000001
v 9.900001 -9.000000 8.100000
v 17.099998 -18.000000 0.900000
v 17.099998 -18.000000 -0.000000
v 17.999998 -18.000000 -0.000000
v 17.999998 -18.000000 0.900000
v 17.099998 1.350001 0.900000
v 17.099998 2.250001 -0.000000
v 17.999998 2.250001 -0.000000
v 17.999998 1.350001 0.900000
v 17.099998 -18.000000 8.100000
v 17.099998 -18.000000 7.200000
v 17.999998 -18.000000 7.200000
v 17.999998 -18.000000 8.100000
v 17.099998 2.250001 8.100000
v 17.099998 1.350001 7.200000
v 17.999998 1.350001 7.200000
v 17.999998 2.250001 8.100000
v -10.499999 -8.100000 0.000000
v -10.500002 -8.100000 8.100001
v -2.400001 -8.100000 8.100003
v -2.399999 -8.100000 0.000003
v -10.499999 -9.000000 0.000000
v -10.500002 -9.000000 8.100001
v -2.400001 -9.000000 8.100003
v -2.399999 -9.000000 0.000003
v -9.599998 -18.000000 7.200003
v -9.599998 -18.000000 8.100003
v -10.500000 -18.000000 8.100002
v -10.500000 -18.000000 7.200003
v -9.599998 1.350001 7.200003
v -9.599998 2.250001 8.100003
v -10.500000 2.250001 8.100002
v -10.500000 1.350001 7.200003
v -9.599998 -18.000000 0.000003
v -9.599998 -18.000000 0.900003
v -10.499999 -18.000000 0.900003
v -10.499999 -18.000000 0.000003
v -9.599998 2.250001 0.000003
v -9.599998 1.350001 0.900003
v -10.499999 1.350001 0.900003
v -10.499999 2.250001 0.000003
v 5.630219 -2.430000 -3.894364
v 7.149725 -2.430000 -3.433429
v 8.550112 -2.430000 -2.684910
v 9.777559 -2.430000 -1.677572
v 10.784901 -2.430000 -0.450127
v 11.533422 -2.430000 0.950256
v 11.994360 -2.430000 2.469760
v 12.150000 -2.430000 4.049992
v 11.994362 -2.430000 5.630224
v 11.533428 -2.430000 7.149730
v 10.784908 -2.430000 8.550116
v 9.777569 -2.430000 9.777563
v 8.550123 -2.430000 10.784902
v 7.149740 -2.430000 11.533422
v 5.630235 -2.430000 11.994360
v 4.050003 -2.430000 12.150000
v 2.469770 -2.430000 11.994362
v 0.950266 -2.430000 11.533425
v -0.450118 -2.430000 10.784904
v -1.677565 -2.430000 9.777566
v -2.684904 -2.430000 8.550119
v -3.433424 -2.430000 7.149734
v -3.894361 -2.430000 5.630230
v -4.050000 -2.430000 4.049999
v -3.894361 -2.430000 2.469768
v -3.433424 -2.430000 0.950264
v -2.684904 -2.430000 -0.450119
v -1.677565 -2.430000 -1.677565
v -0.450119 -2.430000 -2.684904
v 0.950264 -2.430000 -3.433424
v 2.469769 -2.430000 -3.894361
v 4.050000 -2.430000 -4.050000
v 7.149725 -1.530000 -3.433429
v 4.050000 -1.530000 -4.050000
v 2.469769 -1.530000 -3.894361
v 0.950264 -1.530000 -3.433424
v -0.450119 -1.530000 -2.684904
v -1.677565 -1.530000 -1.677565
v 5.630219 -1.530000 -3.894364
v -3.433424 -1.530000 0.950264
v -3.894361 -1.530000 2.469768
v -4.050000 -1.530000 4.049999
v -3.894361 -1.530000 5.630230
v -3.433424 -1.530000 7.149734
v -2.684904 -1.530000 8.550119
v -1.677565 -1.530000 9.777566
v -0.450118 -1.530000 10.784904
v 0.950266 -1.530000 11.533425
v 2.469770 -1.530000 11.994362
v 4.050003 -1.530000 12.150000
v 5.630235 -1.530000 11.994360
v 7.149740 -1.530000 11.533422
v 8.550123 -1.530000 10.784902
v 9.777569 -1.530000 9.777563
v 10.784908 -1.530000 8.550116
v 11.533428 -1.530000 7.149730
v 11.994362 -1.530000 5.630224
v 12.150000 -1.530000 4.049992
v 11.994360 -1.530000 2.469760
v 11.533422 -1.530000 0.950256
v 10.784901 -1.530000 -0.450127
v 9.777559 -1.530000 -1.677572
v 8.550112 -1.530000 -2.684910
v -2.684904 -1.530000 -0.450119
v -9.779998 -8.999999 2.430003
v -9.779998 -8.999999 2.970003
v -10.319999 -8.999999 2.970003
v -10.319999 -8.999999 2.430003
v -9.779998 1.800001 2.430003
v -9.779998 1.800001 2.970003
v -10.319999 1.800001 2.970003
v -10.319999 1.800001 2.430003
v -9.779998 -8.999999 5.130003
v -9.779998 -8.999999 5.670003
v -10.319999 -8.999999 5.670004
v -10.319999 -8.999999 5.130003
v -9.779998 1.800001 5.130003
v -9.779998 1.800001 5.670003
v -10.319999 1.800001 5.670004
v -10.319999 1.800001 5.130003
v 17.820000 -9.000000 2.430000
v 17.820000 -9.000000 2.970000
v 17.279999 -9.000000 2.970000
v 17.279999 -9.000000 2.430000
v 17.820000 1.800000 2.430000
v 17.820000 1.800000 2.970000
v 17.279999 1.800000 2.970000
v 17.279999 1.800000 2.430000
v 17.820000 -9.000000 5.130001
v 17.820000 -9.000000 5.670001
v 17.279999 -9.000000 5.670000
v 17.279999 -9.000000 5.130000
v 17.820000 1.800000 5.130001
v 17.820000 1.800000 5.670001
v 17.279999 1.800000 5.670000
v 17.279999 1.800000 5.130000
vt 0.000000 1.000000
vt 1.000000 1.000000
vt 1.000000 0.000000
vt 0.739794 0.449160
vt 0.739794 0.409427
vt 0.700061 0.409427
vt 0.700061 0.449160
vt 0.713932 0.416028
vt 0.713932 0.442559
vt 0.740463 0.442559
vt 0.740463 0.416028
vt 0.743396 0.206935
vt 0.751798 0.206950
vt 0.751783 0.241290
vt 0.751552 0.215800
vt 0.751551 0.219616
vt 0.743149 0.219601
vt 0.752098 0.215418
vt 0.752097 0.219234
vt 0.743695 0.219219
vt 0.756115 0.385633
vt 0.750575 0.385623
vt 0.750584 0.362980
vt 0.752095 0.223050
vt 0.743693 0.223035
vt 0.751555 0.209080
vt 0.751554 0.212896
vt 0.743152 0.212881
vt 0.760024 0.241883
vt 0.741819 0.241851
vt 0.741821 0.238035
vt 0.760891 0.239584
vt 0.742687 0.239551
vt 0.742688 0.235736
vt 0.760255 0.206965
vt 0.759320 0.210779
vt 0.742049 0.210748
vt 0.759373 0.242953
vt 0.742103 0.242922
vt 0.742104 0.239107
vt 0.745841 0.221531
vt 0.746774 0.221533
vt 0.746773 0.225348
vt 0.751556 0.208169
vt 0.751554 0.211984
vt 0.743152 0.211969
vt 0.760038 0.207543
vt 0.759103 0.211357
vt 0.741832 0.211326
vt 0.760080 0.243398
vt 0.742810 0.243367
vt 0.742811 0.239552
vt 0.760240 0.241305
vt 0.742036 0.241273
vt 0.742038 0.237457
vt 0.761313 0.242153
vt 0.743109 0.242121
vt 0.743111 0.238305
vt 0.745842 0.217716
vt 0.746776 0.217717
vt 0.759309 0.237488
vt 0.759092 0.238066
vt 0.745014 0.224331
vt 0.745016 0.220515
vt 0.751550 0.220527
vt 0.751581 0.208029
vt 0.751566 0.242369
vt 0.743164 0.242354
vt 0.751549 0.223431
vt 0.743147 0.223416
vt 0.743696 0.215403
vt 0.743698 0.211588
vt 0.752100 0.211603
vt 0.750145 0.387504
vt 0.750155 0.364861
vt 0.755695 0.364871
vt 0.752102 0.207787
vt 0.751552 0.216711
vt 0.743150 0.216696
vt 0.760456 0.243272
vt 0.742252 0.243240
vt 0.742254 0.239424
vt 0.742253 0.239634
vt 0.760458 0.239667
vt 0.760456 0.243482
vt 0.759605 0.206462
vt 0.758670 0.210276
vt 0.741400 0.210245
vt 0.760014 0.241800
vt 0.742743 0.241769
vt 0.742745 0.237953
vt 0.746777 0.213902
vt 0.760471 0.208932
vt 0.759536 0.212746
vt 0.742265 0.212715
vt 0.743395 0.236800
vt 0.760666 0.236831
vt 0.760664 0.240646
vt 0.759591 0.240803
vt 0.741386 0.240770
vt 0.741388 0.236955
vt 0.760457 0.242420
vt 0.742252 0.242387
vt 0.742254 0.238571
vt 0.745844 0.213900
vt 0.745845 0.210084
vt 0.758659 0.236985
vt 0.745017 0.216700
vt 0.831838 0.423609
vt 0.831838 0.451639
vt 0.819838 0.451639
vt 0.776242 0.423728
vt 0.776242 0.451758
vt 0.762909 0.451758
vt 0.832315 0.423728
vt 0.832315 0.451758
vt 0.818982 0.451758
vt 0.844314 0.423728
vt 0.844314 0.451758
vt 0.774038 0.421057
vt 0.774038 0.449087
vt 0.759884 0.449087
vt 0.788470 0.421057
vt 0.788470 0.449087
vt 0.781101 0.421628
vt 0.781101 0.449658
vt 0.766947 0.449658
vt 0.809686 0.421628
vt 0.809686 0.449658
vt 0.795532 0.449658
vt 0.842042 0.423609
vt 0.842042 0.451639
vt 0.750433 0.423609
vt 0.750433 0.451639
vt 0.738434 0.451639
vt 0.763766 0.423609
vt 0.763766 0.451639
vt 0.740706 0.423728
vt 0.750910 0.423728
vt 0.750910 0.451758
vt 0.795532 0.421628
vt 0.818982 0.423728
vt 0.804828 0.451758
vt 0.806506 0.423609
vt 0.806506 0.451639
vt 0.792351 0.451639
vt 0.819838 0.423609
vt 0.790396 0.423728
vt 0.790396 0.451758
vt 0.804828 0.423728
vt 0.835019 0.421628
vt 0.845223 0.421628
vt 0.845223 0.449658
vt 0.746551 0.421057
vt 0.746551 0.449087
vt 0.734552 0.449087
vt 0.759884 0.421057
vt 0.741614 0.421628
vt 0.741614 0.449658
vt 0.731410 0.449658
vt 0.802624 0.421057
vt 0.815957 0.421057
vt 0.815957 0.449087
vt 0.802624 0.449087
vt 0.823019 0.421628
vt 0.823019 0.449658
vt 0.835019 0.449658
vt 0.762909 0.423728
vt 0.753614 0.421628
vt 0.753614 0.449658
vt 0.777920 0.423609
vt 0.777920 0.451639
vt 0.792351 0.423609
vt 0.766947 0.421628
vt 0.827956 0.421057
vt 0.827956 0.449087
vt 0.707119 0.410718
vt 0.726716 0.423532
vt 0.716241 0.447506
vt 0.746779 0.210086
vt 0.000000 0.000000
vt 0.743381 0.241275
vt 0.743150 0.215785
vt 0.756124 0.362990
vt 0.743153 0.209065
vt 0.760892 0.235768
vt 0.742051 0.206932
vt 0.759375 0.239138
vt 0.745839 0.225347
vt 0.743154 0.208154
vt 0.741834 0.207510
vt 0.760082 0.239582
vt 0.761315 0.238338
vt 0.751549 0.224342
vt 0.743179 0.208014
vt 0.755685 0.387514
vt 0.743700 0.207772
vt 0.759524 0.239455
vt 0.742252 0.243450
vt 0.741401 0.206430
vt 0.760015 0.237984
vt 0.742266 0.208899
vt 0.743393 0.240615
vt 0.760458 0.238604
vt 0.738434 0.423609
vt 0.740706 0.451758
vt 0.734552 0.421057
vt 0.731410 0.421628
vt 0.726716 0.434692
vt 0.719087 0.446064
vt 0.721648 0.443971
vt 0.723826 0.441306
vt 0.719087 0.412160
vt 0.721648 0.414254
vt 0.727317 0.430996
vt 0.727317 0.427228
vt 0.723826 0.416918
vt 0.725538 0.420051
vt 0.713220 0.409983
vt 0.716241 0.410718
vt 0.710140 0.409983
vt 0.701712 0.414254
vt 0.704273 0.412160
vt 0.696644 0.423532
vt 0.699534 0.416918
vt 0.701712 0.443971
vt 0.710140 0.448241
vt 0.707119 0.447506
vt 0.696644 0.434692
vt 0.696043 0.430996
vt 0.696043 0.427228
vt 0.697823 0.438173
vt 0.704273 0.446064
vt 0.713220 0.448241
vt 0.725538 0.438173
vt 0.697823 0.420051
vt 0.699534 0.441306
vn 0.000000 1.000000 0.000000
vn 0.000000 -1.000000 0.000000
vn 1.000000 0.000000 0.000000
vn 0.000000 0.000000 1.000000
vn -1.000000 0.000000 0.000000
vn 0.000000 0.000000 -1.000000
vn 0.956900 0.000000 -0.290300
vn -0.956900 0.000000 -0.290300
vn -0.881900 0.000000 0.471400
vn -0.773000 0.000000 0.634400
vn -0.290300 0.000000 0.956900
vn -0.098000 0.000000 0.995200
vn 0.290300 0.000000 -0.956900
vn -0.098000 0.000000 -0.995200
vn 0.881900 0.000000 -0.471400
vn 0.634400 0.000000 0.773000
vn 0.773000 0.000000 0.634400
vn -0.773000 0.000000 -0.634400
vn 0.098000 0.000000 -0.995200
vn -0.956900 0.000000 0.290300
vn 0.995200 0.000000 0.098000
vn 0.995200 0.000000 -0.098000
vn -0.995200 0.000000 -0.098000
vn -0.995200 0.000000 0.098000
vn -0.634400 0.000000 -0.773000
vn -0.634400 0.000000 0.773000
vn -0.471400 0.000000 0.881900
vn 0.773000 0.000000 -0.634400
vn 0.290300 0.000000 0.956900
vn 0.098000 0.000000 0.995200
vn -0.290300 0.000000 -0.956900
vn -0.471400 0.000000 -0.881900
vn -0.881900 0.000000 -0.471400
vn 0.634400 0.000000 -0.773000
vn 0.881900 0.000000 0.471400
vn 0.956900 0.000000 0.290300
vn 0.471400 0.000000 -0.881900
vn 0.471400 0.000000 0.881900
s off
f 2/1/1 4/2/1 3/3/1
f 7/1/2 8/2/2 6/3/2
f 4/4/3 8/5/3 7/6/3
f 6/5/4 8/6/4 4/7/4
f 1/8/5 5/9/5 6/10/5
f 7/9/6 5/10/6 1/11/6
f 15/12/2 14/13/2 13/14/2
f 9/15/3 13/16/3 14/17/3
f 10/18/6 14/19/6 15/20/6
f 10/21/1 11/22/1 12/23/1
f 12/19/4 16/24/4 13/25/4
f 11/26/5 15/27/5 16/28/5
f 22/29/5 18/30/5 17/31/5
f 23/32/6 19/33/6 18/34/6
f 23/35/3 24/36/3 20/37/3
f 21/38/4 17/39/4 20/40/4
f 18/41/2 19/42/2 20/43/2
f 29/44/1 32/45/1 23/46/1
f 29/47/5 30/48/5 26/49/5
f 31/50/6 27/51/6 26/52/6
f 32/53/3 28/54/3 27/55/3
f 29/56/4 25/57/4 28/58/4
f 26/41/2 27/59/2 28/60/2
f 32/53/3 31/61/3 24/36/3
f 21/62/5 30/48/5 29/47/5
f 31/63/2 30/64/2 21/65/2
f 40/66/2 39/67/2 38/68/2
f 33/16/5 37/69/5 38/70/5
f 34/71/4 38/72/4 39/73/4
f 33/74/1 34/75/1 35/76/1
f 36/77/6 40/73/6 37/72/6
f 35/27/3 39/78/3 40/79/3
f 46/80/3 42/81/3 41/82/3
f 47/83/4 43/84/4 42/85/4
f 47/86/5 48/87/5 44/88/5
f 45/89/6 41/90/6 44/91/6
f 42/92/2 43/60/2 44/59/2
f 46/46/1 53/45/1 56/15/1
f 53/93/3 54/94/3 50/95/3
f 55/96/4 51/97/4 50/98/4
f 56/99/5 52/100/5 51/101/5
f 53/102/6 49/103/6 52/104/6
f 50/92/2 51/105/2 52/106/2
f 56/99/5 55/107/5 48/87/5
f 54/94/3 53/93/3 46/80/3
f 55/64/2 54/108/2 45/78/2
f 62/109/7 116/110/7 115/111/7
f 81/112/8 97/113/8 96/114/8
f 77/115/9 101/116/9 100/117/9
f 76/118/10 102/119/10 101/116/10
f 73/120/11 105/121/11 104/122/11
f 72/123/12 106/124/12 105/121/12
f 57/125/13 95/126/13 89/127/13
f 87/128/14 91/129/14 90/130/14
f 61/131/15 117/132/15 116/110/15
f 68/133/16 110/134/16 109/135/16
f 67/136/17 111/137/17 110/134/17
f 84/138/18 83/139/18 120/140/18
f 88/141/19 90/130/19 95/126/19
f 78/142/20 100/117/20 99/143/20
f 64/144/21 114/145/21 113/146/21
f 63/147/22 115/111/22 114/145/22
f 80/148/23 98/149/23 97/113/23
f 79/150/24 99/143/24 98/149/24
f 85/151/25 84/152/25 94/153/25
f 75/154/26 103/155/26 102/156/26
f 74/157/27 104/122/27 103/155/27
f 60/158/28 118/159/28 117/160/28
f 71/161/29 70/162/29 108/163/29
f 71/161/30 107/164/30 106/124/30
f 86/165/31 92/166/31 91/129/31
f 85/151/32 93/167/32 92/166/32
f 82/168/33 96/114/33 120/140/33
f 59/169/34 119/170/34 118/159/34
f 66/171/35 112/172/35 111/137/35
f 65/173/36 113/146/36 112/172/36
f 58/174/37 89/127/37 119/170/37
f 69/175/38 109/176/38 108/163/38
f 105/177/1 113/178/1 95/179/1
f 122/92/2 123/105/2 124/106/2
f 128/106/1 127/105/1 126/92/1
f 128/106/6 125/180/6 121/180/6
f 127/105/5 128/106/5 124/106/5
f 126/92/4 127/105/4 123/105/4
f 125/180/3 126/92/3 122/92/3
f 129/180/2 130/92/2 131/105/2
f 133/180/1 136/106/1 135/105/1
f 136/106/6 133/180/6 129/180/6
f 135/105/5 136/106/5 132/106/5
f 134/92/4 135/105/4 131/105/4
f 133/180/3 134/92/3 130/92/3
f 138/92/2 139/105/2 140/106/2
f 144/106/1 143/105/1 142/92/1
f 144/106/6 141/180/6 137/180/6
f 143/105/5 144/106/5 140/106/5
f 142/92/4 143/105/4 139/105/4
f 141/180/3 142/92/3 138/92/3
f 146/92/2 147/105/2 148/106/2
f 152/106/1 151/105/1 150/92/1
f 152/106/6 149/180/6 145/180/6
f 151/105/5 152/106/5 148/106/5
f 150/92/4 151/105/4 147/105/4
f 149/180/3 150/92/3 146/92/3
f 1/181/1 2/1/1 3/3/1
f 5/181/2 7/1/2 6/3/2
f 3/7/3 4/4/3 7/6/3
f 2/4/4 6/5/4 4/7/4
f 2/11/5 1/8/5 6/10/5
f 3/8/6 7/9/6 1/11/6
f 16/182/2 15/12/2 13/14/2
f 10/183/3 9/15/3 14/17/3
f 11/71/6 10/18/6 15/20/6
f 9/184/1 10/21/1 12/23/1
f 9/20/4 12/19/4 13/25/4
f 12/185/5 11/26/5 16/28/5
f 21/62/5 22/29/5 17/31/5
f 22/186/6 23/32/6 18/34/6
f 19/187/3 23/35/3 20/37/3
f 24/188/4 21/38/4 20/40/4
f 17/189/2 18/41/2 20/43/2
f 22/190/1 29/44/1 23/46/1
f 25/191/5 29/47/5 26/49/5
f 30/192/6 31/50/6 26/52/6
f 31/61/3 32/53/3 27/55/3
f 32/193/4 29/56/4 28/58/4
f 25/42/2 26/41/2 28/60/2
f 23/35/3 32/53/3 24/36/3
f 22/29/5 21/62/5 29/47/5
f 24/194/2 31/63/2 21/65/2
f 37/195/2 40/66/2 38/68/2
f 34/17/5 33/16/5 38/70/5
f 35/18/4 34/71/4 39/73/4
f 36/196/1 33/74/1 35/76/1
f 33/197/6 36/77/6 37/72/6
f 36/28/3 35/27/3 40/79/3
f 45/198/3 46/80/3 41/82/3
f 46/199/4 47/83/4 42/85/4
f 43/200/5 47/86/5 44/88/5
f 48/201/6 45/89/6 44/91/6
f 41/105/2 42/92/2 44/59/2
f 47/183/1 46/46/1 56/15/1
f 49/202/3 53/93/3 50/95/3
f 54/203/4 55/96/4 50/98/4
f 55/107/5 56/99/5 51/101/5
f 56/204/6 53/102/6 52/104/6
f 49/180/2 50/92/2 52/106/2
f 47/86/5 56/99/5 48/87/5
f 45/198/3 54/94/3 46/80/3
f 48/65/2 55/64/2 45/78/2
f 63/147/7 62/109/7 115/111/7
f 82/168/8 81/112/8 96/114/8
f 78/142/9 77/115/9 100/117/9
f 77/115/10 76/118/10 101/116/10
f 74/157/11 73/120/11 104/122/11
f 73/120/12 72/123/12 105/121/12
f 58/174/13 57/125/13 89/127/13
f 88/141/14 87/128/14 90/130/14
f 62/109/15 61/131/15 116/110/15
f 69/205/16 68/133/16 109/135/16
f 68/133/17 67/136/17 110/134/17
f 94/206/18 84/138/18 120/140/18
f 57/125/19 88/141/19 95/126/19
f 79/150/20 78/142/20 99/143/20
f 65/173/21 64/144/21 113/146/21
f 64/144/22 63/147/22 114/145/22
f 81/112/23 80/148/23 97/113/23
f 80/148/24 79/150/24 98/149/24
f 93/167/25 85/151/25 94/153/25
f 76/207/26 75/154/26 102/156/26
f 75/154/27 74/157/27 103/155/27
f 61/208/28 60/158/28 117/160/28
f 107/164/29 71/161/29 108/163/29
f 72/123/30 71/161/30 106/124/30
f 87/128/31 86/165/31 91/129/31
f 86/165/32 85/151/32 92/166/32
f 83/139/33 82/168/33 120/140/33
f 60/158/34 59/169/34 118/159/34
f 67/136/35 66/171/35 111/137/35
f 66/171/36 65/173/36 112/172/36
f 59/169/37 58/174/37 119/170/37
f 70/162/38 69/175/38 108/163/38
f 95/179/1 116/209/1 89/210/1
f 119/211/1 89/210/1 118/212/1
f 113/178/1 109/213/1 110/214/1
f 115/215/1 116/209/1 114/216/1
f 111/217/1 112/218/1 113/178/1
f 111/217/1 113/178/1 110/214/1
f 107/219/1 108/220/1 109/213/1
f 107/219/1 113/178/1 106/221/1
f 103/222/1 104/223/1 105/177/1
f 103/222/1 100/224/1 102/225/1
f 94/226/1 91/227/1 92/228/1
f 97/229/1 98/230/1 99/231/1
f 97/229/1 94/226/1 96/232/1
f 94/226/1 97/229/1 91/227/1
f 93/233/1 94/226/1 92/228/1
f 95/179/1 90/234/1 91/227/1
f 89/210/1 116/209/1 118/212/1
f 116/209/1 117/235/1 118/212/1
f 100/224/1 101/236/1 102/225/1
f 109/213/1 113/178/1 107/219/1
f 105/177/1 100/224/1 103/222/1
f 113/178/1 105/177/1 106/221/1
f 94/226/1 120/237/1 96/232/1
f 125/180/1 128/106/1 126/92/1
f 113/178/1 114/216/1 95/179/1
f 97/229/1 99/231/1 100/224/1
f 97/229/1 100/224/1 105/177/1
f 91/227/1 97/229/1 105/177/1
f 121/180/2 122/92/2 124/106/2
f 95/179/1 91/227/1 105/177/1
f 114/216/1 116/209/1 95/179/1
f 124/106/6 128/106/6 121/180/6
f 123/105/5 127/105/5 124/106/5
f 122/92/4 126/92/4 123/105/4
f 121/180/3 125/180/3 122/92/3
f 132/106/2 129/180/2 131/105/2
f 134/92/1 133/180/1 135/105/1
f 132/106/6 136/106/6 129/180/6
f 131/105/5 135/105/5 132/106/5
f 130/92/4 134/92/4 131/105/4
f 129/180/3 133/180/3 130/92/3
f 137/180/2 138/92/2 140/106/2
f 141/180/1 144/106/1 142/92/1
f 140/106/6 144/106/6 137/180/6
f 139/105/5 143/105/5 140/106/5
f 138/92/4 142/92/4 139/105/4
f 137/180/3 141/180/3 138/92/3
f 145/180/2 146/92/2 148/106/2
f 149/180/1 152/106/1 150/92/1
f 148/106/6 152/106/6 145/180/6
f 147/105/5 151/105/5 148/106/5
f 146/92/4 150/92/4 147/105/4
f 145/180/3 149/180/3 146/92/3
